<svg width="697" height="634" viewBox="0 0 697 634" fill="none" xmlns="http://www.w3.org/2000/svg">
<path d="M651.834 319.422C644.962 372.424 618.378 434.062 565.211 462.364C484.931 505.159 491.65 570.955 334.936 599.561C312.083 603.833 288.788 605.835 265.459 605.533C254.042 605.342 242.649 604.495 231.348 602.997C131.747 589.772 64.7235 526.803 40.1334 450.774C7.77863 350.805 72.3905 285.3 115.214 245.916C158.038 206.532 189.417 83.6119 343.231 54.4479C366.692 49.8682 390.655 47.7664 414.645 48.184C469.374 49.452 529.065 65.7585 570.369 99.8677C573.464 102.404 576.484 105.058 579.43 107.831C636.835 161.454 661.23 247.159 651.834 319.422Z" fill="#FF725E"/>
<path opacity="0.7" d="M651.834 319.422C644.962 372.424 618.378 434.062 565.211 462.364C484.931 505.159 491.65 570.955 334.936 599.561C312.083 603.833 288.788 605.835 265.459 605.533C254.042 605.342 242.649 604.495 231.348 602.997C131.747 589.772 64.7235 526.803 40.1334 450.774C7.77863 350.805 72.3905 285.3 115.214 245.916C158.038 206.532 189.417 83.6119 343.231 54.4479C366.692 49.8682 390.655 47.7664 414.645 48.184C469.374 49.452 529.065 65.7585 570.369 99.8677C573.464 102.404 576.484 105.058 579.43 107.831C636.835 161.454 661.23 247.159 651.834 319.422Z" fill="white"/>
<path d="M35.4634 588.479H664.687" stroke="#263238" stroke-linecap="round" stroke-linejoin="round"/>
<path d="M526.166 93.0712H604.522C604.522 93.0712 612.05 72.555 598.514 65.0357C584.978 57.5165 584.978 67.7746 574.454 63.6663C565.755 60.2807 564.124 53.8393 561.699 47.0174C561.42 46.244 561.127 45.4578 560.82 44.6716C559.984 42.5538 558.905 40.5222 557.6 38.6106" stroke="#B2B2B2" stroke-linecap="round" stroke-linejoin="round"/>
<path d="M548.372 29.7219C528.73 16.6996 496.264 21.556 496.264 49.2998C496.264 56.147 478.212 49.2998 471.451 58.1758C464.69 67.0518 472.204 72.5423 463.184 75.2812C454.165 78.02 453.426 71.1728 442.121 71.8576C430.816 72.5423 432.363 82.1157 428.585 84.8546C424.808 87.5934 424.835 86.224 416.555 86.9087C408.275 87.5934 406.797 93.0585 406.797 93.0585H512.309" stroke="#B2B2B2" stroke-linecap="round" stroke-linejoin="round"/>
<path d="M568.529 85.59C568.529 85.59 572.627 74.0766 562.577 65.6063C552.526 57.1361 542.085 61.8784 539.116 65.6063C536.146 69.3342 536.133 76.4477 531.295 77.1198C526.458 77.7918 527.559 69.74 517.174 71.7054C506.789 73.6708 510.845 83.2188 506.022 85.2476C501.199 87.2764 501.185 79.8333 494.48 82.2044C487.775 84.5756 488.151 88.9756 488.151 88.9756" stroke="#B2B2B2" stroke-linecap="round" stroke-linejoin="round"/>
<path d="M515.041 62.5758C512.3 60.7993 509.086 59.7226 505.732 59.4572C502.379 59.1919 499.009 59.7477 495.971 61.0669C485.182 65.5936 490.158 75.0149 485.182 77.2846C480.205 79.5543 477.724 76.9169 471.507 79.5543C465.289 82.1918 465.694 85.9577 465.694 85.9577" stroke="#B2B2B2" stroke-linecap="round" stroke-linejoin="round"/>
<path d="M72.4045 128.601C71.1555 127.972 69.7279 127.698 68.3061 127.814C63.929 128.081 64.5144 131.809 63.0507 132.886C61.587 133.964 61.6567 133.419 58.3669 133.685C57.539 133.674 56.7277 133.897 56.0457 134.325C55.3637 134.752 54.8449 135.361 54.5613 136.069H131.524C131.524 136.069 133.42 130.908 131.412 127.358" stroke="#B2B2B2" stroke-linecap="round" stroke-linejoin="round"/>
<path d="M129.182 125.152C123.913 122.235 123.913 126.217 119.828 124.619C116.441 123.351 115.814 120.815 114.866 118.152C114.754 117.848 114.643 117.544 114.517 117.239C110.084 106.005 89.4252 105.231 89.4252 119.04C89.4252 121.703 82.4552 119.04 79.7787 122.501C77.1023 125.963 80.0715 128.081 76.5586 129.146" stroke="#B2B2B2" stroke-linecap="round" stroke-linejoin="round"/>
<path d="M117.514 133.14C117.943 131.775 117.953 130.331 117.546 128.961C117.138 127.591 116.327 126.349 115.2 125.367C111.297 122.07 107.241 123.922 106.084 125.367C104.927 126.813 104.927 129.577 103.031 129.843C101.135 130.109 101.637 126.952 97.5383 127.738C93.44 128.524 95.0709 132.214 93.189 133.013C91.3071 133.812 91.3072 130.896 88.7004 131.821C86.0936 132.747 86.233 134.459 86.233 134.459" stroke="#B2B2B2" stroke-linecap="round" stroke-linejoin="round"/>
<path d="M96.7158 124.264C95.6495 123.574 94.3993 123.155 93.0952 123.053C91.7911 122.95 90.4806 123.167 89.2998 123.681C85.1178 125.443 87.0415 129.108 85.1178 130.021C83.194 130.934 82.2182 129.881 79.8066 130.908C77.395 131.935 77.5483 133.444 77.5483 133.444" stroke="#B2B2B2" stroke-linecap="round" stroke-linejoin="round"/>
<path d="M304.84 57.7194C303.603 57.0978 302.191 56.8242 300.783 56.9332C296.406 57.1995 296.992 60.9274 295.528 62.0052C294.064 63.083 294.064 62.5378 290.844 62.7914C290.015 62.781 289.202 63.0062 288.52 63.4358C287.838 63.8654 287.32 64.4779 287.039 65.1879H363.959C363.959 65.1879 365.841 60.0271 363.848 56.4767" stroke="#B2B2B2" stroke-linecap="round" stroke-linejoin="round"/>
<path d="M361.618 54.2704C356.348 51.3413 356.348 55.3355 352.25 53.7378C348.876 52.4698 348.235 49.9338 347.301 47.271C347.19 46.9667 347.078 46.6624 346.953 46.3581C342.506 35.1236 321.861 34.3374 321.861 48.1586C321.861 50.8088 314.891 48.1586 312.2 51.6076C309.51 55.0566 312.493 57.1995 308.994 58.2646" stroke="#B2B2B2" stroke-linecap="round" stroke-linejoin="round"/>
<path d="M349.894 62.2715C350.324 60.9151 350.341 59.4781 349.943 58.1136C349.545 56.7492 348.748 55.5086 347.636 54.524C343.733 51.2272 339.676 53.0658 338.519 54.524C337.362 55.9822 337.348 58.7338 335.466 59C333.584 59.2663 334.072 56.0963 329.974 56.8952C325.876 57.694 327.506 61.3712 325.625 62.1574C323.743 62.9435 323.743 60.0525 321.136 60.9781C318.529 61.9038 318.669 63.6156 318.669 63.6156" stroke="#B2B2B2" stroke-linecap="round" stroke-linejoin="round"/>
<path d="M329.151 53.3194C328.085 52.6289 326.835 52.2107 325.531 52.1081C324.227 52.0055 322.916 52.2224 321.735 52.7361C317.553 54.486 319.477 58.1632 317.553 59.0761C315.63 59.9891 314.654 58.924 312.228 59.951C309.803 60.9781 309.97 62.487 309.97 62.487" stroke="#B2B2B2" stroke-linecap="round" stroke-linejoin="round"/>
<path d="M411.592 102.797H328.998V508.823H411.592V102.797Z" fill="#263238" stroke="#263238" stroke-linecap="round" stroke-linejoin="round"/>
<path d="M461.121 102.797H391.393V508.823H461.121V102.797Z" fill="white" stroke="#263238" stroke-linecap="round" stroke-linejoin="round"/>
<path d="M457.859 107.159H394V127.244H457.859V107.159Z" fill="white" stroke="#263238" stroke-linecap="round" stroke-linejoin="round"/>
<path d="M402.643 109.961V124.556" stroke="#263238" stroke-linecap="round" stroke-linejoin="round"/>
<path d="M412.122 109.961V124.556" stroke="#263238" stroke-linecap="round" stroke-linejoin="round"/>
<path d="M421.587 109.961V124.556" stroke="#263238" stroke-linecap="round" stroke-linejoin="round"/>
<path d="M431.067 109.961V124.556" stroke="#263238" stroke-linecap="round" stroke-linejoin="round"/>
<path d="M440.546 109.961V124.556" stroke="#263238" stroke-linecap="round" stroke-linejoin="round"/>
<path d="M450.011 109.961V124.556" stroke="#263238" stroke-linecap="round" stroke-linejoin="round"/>
<path d="M387.448 107.159H332.706V127.244H387.448V107.159Z" fill="white" stroke="#263238" stroke-linecap="round" stroke-linejoin="round"/>
<path d="M340.108 109.961V124.556" stroke="#263238" stroke-linecap="round" stroke-linejoin="round"/>
<path d="M348.235 109.961V124.556" stroke="#263238" stroke-linecap="round" stroke-linejoin="round"/>
<path d="M356.348 109.961V124.556" stroke="#263238" stroke-linecap="round" stroke-linejoin="round"/>
<path d="M364.475 109.961V124.556" stroke="#263238" stroke-linecap="round" stroke-linejoin="round"/>
<path d="M372.602 109.961V124.556" stroke="#263238" stroke-linecap="round" stroke-linejoin="round"/>
<path d="M380.715 109.961V124.556" stroke="#263238" stroke-linecap="round" stroke-linejoin="round"/>
<path d="M309.022 156.053H158.317V508.81H309.022V156.053Z" fill="white" stroke="#263238" stroke-linecap="round" stroke-linejoin="round"/>
<path d="M223.5 169.544H167.545V495.344H223.5V169.544Z" fill="#263238" stroke="#263238" stroke-linecap="round" stroke-linejoin="round"/>
<path d="M381.984 156.053H231.279V508.81H381.984V156.053Z" fill="white" stroke="#263238" stroke-linecap="round" stroke-linejoin="round"/>
<path d="M369.563 169.544H243.685V495.344H369.563V169.544Z" fill="white" stroke="#263238" stroke-linecap="round" stroke-linejoin="round"/>
<path d="M275.301 182.693H249.512V194.968H275.301V182.693Z" fill="white" stroke="#263238" stroke-linecap="round" stroke-linejoin="round"/>
<path d="M304.784 182.693H278.995V194.968H304.784V182.693Z" fill="white" stroke="#263238" stroke-linecap="round" stroke-linejoin="round"/>
<path d="M334.253 182.693H308.464V194.968H334.253V182.693Z" fill="white" stroke="#263238" stroke-linecap="round" stroke-linejoin="round"/>
<path d="M363.736 182.693H337.947V194.968H363.736V182.693Z" fill="white" stroke="#263238" stroke-linecap="round" stroke-linejoin="round"/>
<path d="M275.301 204.516H249.512V216.79H275.301V204.516Z" fill="white" stroke="#263238" stroke-linecap="round" stroke-linejoin="round"/>
<path d="M304.784 204.516H278.995V216.79H304.784V204.516Z" fill="white" stroke="#263238" stroke-linecap="round" stroke-linejoin="round"/>
<path d="M334.253 204.516H308.464V216.79H334.253V204.516Z" fill="white" stroke="#263238" stroke-linecap="round" stroke-linejoin="round"/>
<path d="M363.736 204.516H337.947V216.79H363.736V204.516Z" fill="white" stroke="#263238" stroke-linecap="round" stroke-linejoin="round"/>
<path d="M275.301 226.351H249.512V238.625H275.301V226.351Z" fill="white" stroke="#263238" stroke-linecap="round" stroke-linejoin="round"/>
<path d="M304.784 226.351H278.995V238.625H304.784V226.351Z" fill="white" stroke="#263238" stroke-linecap="round" stroke-linejoin="round"/>
<path d="M334.253 226.351H308.464V238.625H334.253V226.351Z" fill="white" stroke="#263238" stroke-linecap="round" stroke-linejoin="round"/>
<path d="M363.736 226.351H337.947V238.625H363.736V226.351Z" fill="white" stroke="#263238" stroke-linecap="round" stroke-linejoin="round"/>
<path d="M275.301 248.173H249.512V260.447H275.301V248.173Z" fill="white" stroke="#263238" stroke-linecap="round" stroke-linejoin="round"/>
<path d="M304.784 248.173H278.995V260.447H304.784V248.173Z" fill="white" stroke="#263238" stroke-linecap="round" stroke-linejoin="round"/>
<path d="M334.253 248.173H308.464V260.447H334.253V248.173Z" fill="white" stroke="#263238" stroke-linecap="round" stroke-linejoin="round"/>
<path d="M363.736 248.173H337.947V260.447H363.736V248.173Z" fill="white" stroke="#263238" stroke-linecap="round" stroke-linejoin="round"/>
<path d="M275.301 270.008H249.512V282.282H275.301V270.008Z" fill="white" stroke="#263238" stroke-linecap="round" stroke-linejoin="round"/>
<path d="M304.784 270.008H278.995V282.282H304.784V270.008Z" fill="white" stroke="#263238" stroke-linecap="round" stroke-linejoin="round"/>
<path d="M334.253 270.008H308.464V282.282H334.253V270.008Z" fill="white" stroke="#263238" stroke-linecap="round" stroke-linejoin="round"/>
<path d="M363.736 270.008H337.947V282.282H363.736V270.008Z" fill="white" stroke="#263238" stroke-linecap="round" stroke-linejoin="round"/>
<path d="M275.301 291.843H249.512V304.117H275.301V291.843Z" fill="white" stroke="#263238" stroke-linecap="round" stroke-linejoin="round"/>
<path d="M304.784 291.843H278.995V304.117H304.784V291.843Z" fill="white" stroke="#263238" stroke-linecap="round" stroke-linejoin="round"/>
<path d="M334.253 291.843H308.464V304.117H334.253V291.843Z" fill="white" stroke="#263238" stroke-linecap="round" stroke-linejoin="round"/>
<path d="M363.736 291.843H337.947V304.117H363.736V291.843Z" fill="white" stroke="#263238" stroke-linecap="round" stroke-linejoin="round"/>
<path d="M275.301 313.665H249.512V325.939H275.301V313.665Z" fill="white" stroke="#263238" stroke-linecap="round" stroke-linejoin="round"/>
<path d="M304.784 313.665H278.995V325.939H304.784V313.665Z" fill="white" stroke="#263238" stroke-linecap="round" stroke-linejoin="round"/>
<path d="M334.253 313.665H308.464V325.939H334.253V313.665Z" fill="white" stroke="#263238" stroke-linecap="round" stroke-linejoin="round"/>
<path d="M363.736 313.665H337.947V325.939H363.736V313.665Z" fill="white" stroke="#263238" stroke-linecap="round" stroke-linejoin="round"/>
<path d="M275.301 335.5H249.512V347.774H275.301V335.5Z" fill="white" stroke="#263238" stroke-linecap="round" stroke-linejoin="round"/>
<path d="M304.784 335.5H278.995V347.774H304.784V335.5Z" fill="white" stroke="#263238" stroke-linecap="round" stroke-linejoin="round"/>
<path d="M334.253 335.5H308.464V347.774H334.253V335.5Z" fill="white" stroke="#263238" stroke-linecap="round" stroke-linejoin="round"/>
<path d="M363.736 335.5H337.947V347.774H363.736V335.5Z" fill="white" stroke="#263238" stroke-linecap="round" stroke-linejoin="round"/>
<path d="M275.301 357.322H249.512V369.597H275.301V357.322Z" fill="white" stroke="#263238" stroke-linecap="round" stroke-linejoin="round"/>
<path d="M304.784 357.322H278.995V369.597H304.784V357.322Z" fill="white" stroke="#263238" stroke-linecap="round" stroke-linejoin="round"/>
<path d="M334.253 357.322H308.464V369.597H334.253V357.322Z" fill="white" stroke="#263238" stroke-linecap="round" stroke-linejoin="round"/>
<path d="M363.736 357.322H337.947V369.597H363.736V357.322Z" fill="white" stroke="#263238" stroke-linecap="round" stroke-linejoin="round"/>
<path d="M275.301 379.157H249.512V391.432H275.301V379.157Z" fill="white" stroke="#263238" stroke-linecap="round" stroke-linejoin="round"/>
<path d="M304.784 379.157H278.995V391.432H304.784V379.157Z" fill="white" stroke="#263238" stroke-linecap="round" stroke-linejoin="round"/>
<path d="M334.253 379.157H308.464V391.432H334.253V379.157Z" fill="white" stroke="#263238" stroke-linecap="round" stroke-linejoin="round"/>
<path d="M363.736 379.157H337.947V391.432H363.736V379.157Z" fill="white" stroke="#263238" stroke-linecap="round" stroke-linejoin="round"/>
<path d="M275.301 400.98H249.512V413.254H275.301V400.98Z" fill="white" stroke="#263238" stroke-linecap="round" stroke-linejoin="round"/>
<path d="M304.784 400.98H278.995V413.254H304.784V400.98Z" fill="white" stroke="#263238" stroke-linecap="round" stroke-linejoin="round"/>
<path d="M334.253 400.98H308.464V413.254H334.253V400.98Z" fill="white" stroke="#263238" stroke-linecap="round" stroke-linejoin="round"/>
<path d="M363.736 400.98H337.947V413.254H363.736V400.98Z" fill="white" stroke="#263238" stroke-linecap="round" stroke-linejoin="round"/>
<path d="M275.301 422.815H249.512V435.089H275.301V422.815Z" fill="white" stroke="#263238" stroke-linecap="round" stroke-linejoin="round"/>
<path d="M304.784 422.815H278.995V435.089H304.784V422.815Z" fill="white" stroke="#263238" stroke-linecap="round" stroke-linejoin="round"/>
<path d="M334.253 422.815H308.464V435.089H334.253V422.815Z" fill="white" stroke="#263238" stroke-linecap="round" stroke-linejoin="round"/>
<path d="M363.736 422.815H337.947V435.089H363.736V422.815Z" fill="white" stroke="#263238" stroke-linecap="round" stroke-linejoin="round"/>
<path d="M275.301 444.65H249.512V456.924H275.301V444.65Z" fill="white" stroke="#263238" stroke-linecap="round" stroke-linejoin="round"/>
<path d="M304.784 444.65H278.995V456.924H304.784V444.65Z" fill="white" stroke="#263238" stroke-linecap="round" stroke-linejoin="round"/>
<path d="M334.253 444.65H308.464V456.924H334.253V444.65Z" fill="white" stroke="#263238" stroke-linecap="round" stroke-linejoin="round"/>
<path d="M363.736 444.65H337.947V456.924H363.736V444.65Z" fill="white" stroke="#263238" stroke-linecap="round" stroke-linejoin="round"/>
<path d="M275.301 466.472H249.512V478.746H275.301V466.472Z" fill="white" stroke="#263238" stroke-linecap="round" stroke-linejoin="round"/>
<path d="M304.784 466.472H278.995V478.746H304.784V466.472Z" fill="white" stroke="#263238" stroke-linecap="round" stroke-linejoin="round"/>
<path d="M334.253 466.472H308.464V478.746H334.253V466.472Z" fill="white" stroke="#263238" stroke-linecap="round" stroke-linejoin="round"/>
<path d="M363.736 466.472H337.947V478.746H363.736V466.472Z" fill="white" stroke="#263238" stroke-linecap="round" stroke-linejoin="round"/>
<path d="M185.332 182.693H176.689V194.968H185.332V182.693Z" fill="white" stroke="#263238" stroke-linecap="round" stroke-linejoin="round"/>
<path d="M195.216 182.693H186.573V194.968H195.216V182.693Z" fill="white" stroke="#263238" stroke-linecap="round" stroke-linejoin="round"/>
<path d="M205.085 182.693H196.442V194.968H205.085V182.693Z" fill="white" stroke="#263238" stroke-linecap="round" stroke-linejoin="round"/>
<path d="M214.955 182.693H206.312V194.968H214.955V182.693Z" fill="white" stroke="#263238" stroke-linecap="round" stroke-linejoin="round"/>
<path d="M185.332 204.516H176.689V216.79H185.332V204.516Z" fill="white" stroke="#263238" stroke-linecap="round" stroke-linejoin="round"/>
<path d="M195.216 204.516H186.573V216.79H195.216V204.516Z" fill="white" stroke="#263238" stroke-linecap="round" stroke-linejoin="round"/>
<path d="M205.085 204.516H196.442V216.79H205.085V204.516Z" fill="white" stroke="#263238" stroke-linecap="round" stroke-linejoin="round"/>
<path d="M214.955 204.516H206.312V216.79H214.955V204.516Z" fill="white" stroke="#263238" stroke-linecap="round" stroke-linejoin="round"/>
<path d="M185.332 226.351H176.689V238.625H185.332V226.351Z" fill="white" stroke="#263238" stroke-linecap="round" stroke-linejoin="round"/>
<path d="M195.216 226.351H186.573V238.625H195.216V226.351Z" fill="white" stroke="#263238" stroke-linecap="round" stroke-linejoin="round"/>
<path d="M205.085 226.351H196.442V238.625H205.085V226.351Z" fill="white" stroke="#263238" stroke-linecap="round" stroke-linejoin="round"/>
<path d="M214.955 226.351H206.312V238.625H214.955V226.351Z" fill="white" stroke="#263238" stroke-linecap="round" stroke-linejoin="round"/>
<path d="M185.332 248.173H176.689V260.447H185.332V248.173Z" fill="white" stroke="#263238" stroke-linecap="round" stroke-linejoin="round"/>
<path d="M195.216 248.173H186.573V260.447H195.216V248.173Z" fill="white" stroke="#263238" stroke-linecap="round" stroke-linejoin="round"/>
<path d="M205.085 248.173H196.442V260.447H205.085V248.173Z" fill="white" stroke="#263238" stroke-linecap="round" stroke-linejoin="round"/>
<path d="M214.955 248.173H206.312V260.447H214.955V248.173Z" fill="white" stroke="#263238" stroke-linecap="round" stroke-linejoin="round"/>
<path d="M185.332 270.008H176.689V282.282H185.332V270.008Z" fill="white" stroke="#263238" stroke-linecap="round" stroke-linejoin="round"/>
<path d="M195.216 270.008H186.573V282.282H195.216V270.008Z" fill="white" stroke="#263238" stroke-linecap="round" stroke-linejoin="round"/>
<path d="M205.085 270.008H196.442V282.282H205.085V270.008Z" fill="white" stroke="#263238" stroke-linecap="round" stroke-linejoin="round"/>
<path d="M214.955 270.008H206.312V282.282H214.955V270.008Z" fill="white" stroke="#263238" stroke-linecap="round" stroke-linejoin="round"/>
<path d="M185.332 291.843H176.689V304.117H185.332V291.843Z" fill="white" stroke="#263238" stroke-linecap="round" stroke-linejoin="round"/>
<path d="M195.216 291.843H186.573V304.117H195.216V291.843Z" fill="white" stroke="#263238" stroke-linecap="round" stroke-linejoin="round"/>
<path d="M205.085 291.843H196.442V304.117H205.085V291.843Z" fill="white" stroke="#263238" stroke-linecap="round" stroke-linejoin="round"/>
<path d="M214.955 291.843H206.312V304.117H214.955V291.843Z" fill="white" stroke="#263238" stroke-linecap="round" stroke-linejoin="round"/>
<path d="M185.332 313.665H176.689V325.939H185.332V313.665Z" fill="white" stroke="#263238" stroke-linecap="round" stroke-linejoin="round"/>
<path d="M195.216 313.665H186.573V325.939H195.216V313.665Z" fill="white" stroke="#263238" stroke-linecap="round" stroke-linejoin="round"/>
<path d="M205.085 313.665H196.442V325.939H205.085V313.665Z" fill="white" stroke="#263238" stroke-linecap="round" stroke-linejoin="round"/>
<path d="M214.955 313.665H206.312V325.939H214.955V313.665Z" fill="white" stroke="#263238" stroke-linecap="round" stroke-linejoin="round"/>
<path d="M185.332 335.5H176.689V347.774H185.332V335.5Z" fill="white" stroke="#263238" stroke-linecap="round" stroke-linejoin="round"/>
<path d="M195.216 335.5H186.573V347.774H195.216V335.5Z" fill="white" stroke="#263238" stroke-linecap="round" stroke-linejoin="round"/>
<path d="M205.085 335.5H196.442V347.774H205.085V335.5Z" fill="white" stroke="#263238" stroke-linecap="round" stroke-linejoin="round"/>
<path d="M214.955 335.5H206.312V347.774H214.955V335.5Z" fill="white" stroke="#263238" stroke-linecap="round" stroke-linejoin="round"/>
<path d="M185.332 357.322H176.689V369.597H185.332V357.322Z" fill="white" stroke="#263238" stroke-linecap="round" stroke-linejoin="round"/>
<path d="M195.216 357.322H186.573V369.597H195.216V357.322Z" fill="white" stroke="#263238" stroke-linecap="round" stroke-linejoin="round"/>
<path d="M205.085 357.322H196.442V369.597H205.085V357.322Z" fill="white" stroke="#263238" stroke-linecap="round" stroke-linejoin="round"/>
<path d="M214.955 357.322H206.312V369.597H214.955V357.322Z" fill="white" stroke="#263238" stroke-linecap="round" stroke-linejoin="round"/>
<path d="M185.332 379.157H176.689V391.432H185.332V379.157Z" fill="white" stroke="#263238" stroke-linecap="round" stroke-linejoin="round"/>
<path d="M195.216 379.157H186.573V391.432H195.216V379.157Z" fill="white" stroke="#263238" stroke-linecap="round" stroke-linejoin="round"/>
<path d="M205.085 379.157H196.442V391.432H205.085V379.157Z" fill="white" stroke="#263238" stroke-linecap="round" stroke-linejoin="round"/>
<path d="M214.955 379.157H206.312V391.432H214.955V379.157Z" fill="white" stroke="#263238" stroke-linecap="round" stroke-linejoin="round"/>
<path d="M185.332 400.98H176.689V413.254H185.332V400.98Z" fill="white" stroke="#263238" stroke-linecap="round" stroke-linejoin="round"/>
<path d="M195.216 400.98H186.573V413.254H195.216V400.98Z" fill="white" stroke="#263238" stroke-linecap="round" stroke-linejoin="round"/>
<path d="M205.085 400.98H196.442V413.254H205.085V400.98Z" fill="white" stroke="#263238" stroke-linecap="round" stroke-linejoin="round"/>
<path d="M214.955 400.98H206.312V413.254H214.955V400.98Z" fill="white" stroke="#263238" stroke-linecap="round" stroke-linejoin="round"/>
<path d="M185.332 422.815H176.689V435.089H185.332V422.815Z" fill="white" stroke="#263238" stroke-linecap="round" stroke-linejoin="round"/>
<path d="M195.216 422.815H186.573V435.089H195.216V422.815Z" fill="white" stroke="#263238" stroke-linecap="round" stroke-linejoin="round"/>
<path d="M205.085 422.815H196.442V435.089H205.085V422.815Z" fill="white" stroke="#263238" stroke-linecap="round" stroke-linejoin="round"/>
<path d="M214.955 422.815H206.312V435.089H214.955V422.815Z" fill="white" stroke="#263238" stroke-linecap="round" stroke-linejoin="round"/>
<path d="M185.332 444.65H176.689V456.924H185.332V444.65Z" fill="white" stroke="#263238" stroke-linecap="round" stroke-linejoin="round"/>
<path d="M195.216 444.65H186.573V456.924H195.216V444.65Z" fill="white" stroke="#263238" stroke-linecap="round" stroke-linejoin="round"/>
<path d="M205.085 444.65H196.442V456.924H205.085V444.65Z" fill="white" stroke="#263238" stroke-linecap="round" stroke-linejoin="round"/>
<path d="M214.955 444.65H206.312V456.924H214.955V444.65Z" fill="white" stroke="#263238" stroke-linecap="round" stroke-linejoin="round"/>
<path d="M185.332 466.472H176.689V478.746H185.332V466.472Z" fill="white" stroke="#263238" stroke-linecap="round" stroke-linejoin="round"/>
<path d="M195.216 466.472H186.573V478.746H195.216V466.472Z" fill="white" stroke="#263238" stroke-linecap="round" stroke-linejoin="round"/>
<path d="M205.085 466.472H196.442V478.746H205.085V466.472Z" fill="white" stroke="#263238" stroke-linecap="round" stroke-linejoin="round"/>
<path d="M214.955 466.472H206.312V478.746H214.955V466.472Z" fill="white" stroke="#263238" stroke-linecap="round" stroke-linejoin="round"/>
<path d="M472.496 541.639H101.887V589.1H472.496V541.639Z" fill="#263238" stroke="#263238" stroke-linecap="round" stroke-linejoin="round"/>
<path d="M281.713 557.311H272.095V589.087H281.713V557.311Z" fill="white" stroke="#263238" stroke-linecap="round" stroke-linejoin="round"/>
<path d="M237.482 557.311H227.863V589.087H237.482V557.311Z" fill="white" stroke="#263238" stroke-linecap="round" stroke-linejoin="round"/>
<path d="M193.25 557.311H183.632V589.087H193.25V557.311Z" fill="white" stroke="#263238" stroke-linecap="round" stroke-linejoin="round"/>
<path d="M149.019 557.311H139.4V589.087H149.019V557.311Z" fill="white" stroke="#263238" stroke-linecap="round" stroke-linejoin="round"/>
<path d="M104.801 557.311H95.1824V589.087H104.801V557.311Z" fill="white" stroke="#263238" stroke-linecap="round" stroke-linejoin="round"/>
<path d="M346.883 557.311H337.264V589.087H346.883V557.311Z" fill="white" stroke="#263238" stroke-linecap="round" stroke-linejoin="round"/>
<path d="M412.066 557.311H402.448V589.087H412.066V557.311Z" fill="white" stroke="#263238" stroke-linecap="round" stroke-linejoin="round"/>
<path d="M477.236 557.311H467.617V589.087H477.236V557.311Z" fill="white" stroke="#263238" stroke-linecap="round" stroke-linejoin="round"/>
<path d="M479.675 473.382H226.399V561.394H479.675V473.382Z" fill="white" stroke="#263238" stroke-linecap="round" stroke-linejoin="round"/>
<path d="M267.286 473.382H82.1763V561.394H267.286V473.382Z" fill="white" stroke="#263238" stroke-linecap="round" stroke-linejoin="round"/>
<path d="M259.242 488.789H90.2058V540.295H259.242V488.789Z" fill="#263238" stroke="#263238" stroke-linecap="round" stroke-linejoin="round"/>
<path d="M309.022 488.865H273.879V508.823H309.022V488.865Z" fill="white" stroke="#263238" stroke-linecap="round" stroke-linejoin="round"/>
<path d="M350.242 488.865H315.1V508.823H350.242V488.865Z" fill="white" stroke="#263238" stroke-linecap="round" stroke-linejoin="round"/>
<path d="M391.449 488.865H356.306V508.823H391.449V488.865Z" fill="white" stroke="#263238" stroke-linecap="round" stroke-linejoin="round"/>
<path d="M432.656 488.865H397.513V508.823H432.656V488.865Z" fill="white" stroke="#263238" stroke-linecap="round" stroke-linejoin="round"/>
<path d="M473.862 488.865H438.72V508.823H473.862V488.865Z" fill="white" stroke="#263238" stroke-linecap="round" stroke-linejoin="round"/>
<path d="M309.022 520.451H273.879V540.409H309.022V520.451Z" fill="white" stroke="#263238" stroke-linecap="round" stroke-linejoin="round"/>
<path d="M350.242 520.451H315.1V540.409H350.242V520.451Z" fill="white" stroke="#263238" stroke-linecap="round" stroke-linejoin="round"/>
<path d="M391.449 520.451H356.306V540.409H391.449V520.451Z" fill="white" stroke="#263238" stroke-linecap="round" stroke-linejoin="round"/>
<path d="M432.656 520.451H397.513V540.409H432.656V520.451Z" fill="white" stroke="#263238" stroke-linecap="round" stroke-linejoin="round"/>
<path d="M473.862 520.451H438.72V540.409H473.862V520.451Z" fill="white" stroke="#263238" stroke-linecap="round" stroke-linejoin="round"/>
<path d="M120.372 488.865H92.0317V508.823H120.372V488.865Z" fill="white" stroke="#263238" stroke-linecap="round" stroke-linejoin="round"/>
<path d="M153.591 488.865H125.251V508.823H153.591V488.865Z" fill="white" stroke="#263238" stroke-linecap="round" stroke-linejoin="round"/>
<path d="M186.824 488.865H158.484V508.823H186.824V488.865Z" fill="white" stroke="#263238" stroke-linecap="round" stroke-linejoin="round"/>
<path d="M220.057 488.865H191.717V508.823H220.057V488.865Z" fill="white" stroke="#263238" stroke-linecap="round" stroke-linejoin="round"/>
<path d="M253.29 488.865H224.95V508.823H253.29V488.865Z" fill="white" stroke="#263238" stroke-linecap="round" stroke-linejoin="round"/>
<path d="M120.372 520.451H92.0317V540.409H120.372V520.451Z" fill="white" stroke="#263238" stroke-linecap="round" stroke-linejoin="round"/>
<path d="M153.591 520.451H125.251V540.409H153.591V520.451Z" fill="white" stroke="#263238" stroke-linecap="round" stroke-linejoin="round"/>
<path d="M186.824 520.451H158.484V540.409H186.824V520.451Z" fill="white" stroke="#263238" stroke-linecap="round" stroke-linejoin="round"/>
<path d="M220.057 520.451H191.717V540.409H220.057V520.451Z" fill="white" stroke="#263238" stroke-linecap="round" stroke-linejoin="round"/>
<path d="M253.29 520.451H224.95V540.409H253.29V520.451Z" fill="white" stroke="#263238" stroke-linecap="round" stroke-linejoin="round"/>
<path d="M304.84 459.815H155.905V474.207H304.84V459.815Z" fill="#263238" stroke="#263238" stroke-linecap="round" stroke-linejoin="round"/>
<path d="M403.507 459.815H254.572V474.207H403.507V459.815Z" fill="white" stroke="#263238" stroke-linecap="round" stroke-linejoin="round"/>
<path d="M637.769 88.5191L558.66 160.478C555.199 163.624 550.506 165.391 545.614 165.39C540.721 165.388 536.029 163.619 532.571 160.472C529.112 157.324 527.17 153.055 527.171 148.605C527.172 144.155 529.117 139.887 532.578 136.741L611.673 64.7821C615.158 61.7435 619.813 60.0678 624.64 60.1143C629.467 60.1607 634.082 61.9256 637.496 65.0305C640.909 68.1355 642.85 72.3333 642.901 76.7241C642.952 81.1149 641.11 85.3492 637.769 88.5191Z" fill="#263238" stroke="#263238" stroke-linecap="round" stroke-linejoin="round"/>
<path d="M545.221 162.811L501.213 202.88C499.194 204.716 496.456 205.748 493.602 205.748C490.747 205.748 488.009 204.716 485.99 202.88C483.972 201.044 482.838 198.553 482.838 195.957C482.838 193.36 483.972 190.87 485.99 189.033L529.999 149.015C532.031 147.246 534.743 146.271 537.555 146.299C540.368 146.326 543.057 147.354 545.046 149.162C547.036 150.97 548.168 153.415 548.201 155.973C548.234 158.531 547.164 160.999 545.221 162.849V162.811Z" fill="white" stroke="#263238" stroke-linecap="round" stroke-linejoin="round"/>
<path d="M372.337 195.919C360.348 206.827 352.184 220.725 348.877 235.854C345.571 250.982 347.27 266.664 353.761 280.914C360.251 295.164 371.241 307.344 385.341 315.913C399.442 324.483 416.019 329.056 432.976 329.056C449.934 329.056 466.511 324.483 480.611 315.913C494.712 307.344 505.702 295.164 512.192 280.914C518.683 266.664 520.382 250.982 517.075 235.854C513.769 220.725 505.605 206.827 493.615 195.919C485.653 188.674 476.199 182.927 465.795 179.006C455.39 175.085 444.239 173.067 432.976 173.067C421.714 173.067 410.562 175.085 400.158 179.006C389.753 182.927 380.3 188.674 372.337 195.919ZM482.937 296.522C473.055 305.51 460.464 311.631 446.757 314.111C433.05 316.59 418.843 315.317 405.932 310.452C393.02 305.587 381.985 297.349 374.221 286.779C366.457 276.209 362.312 263.782 362.312 251.07C362.312 238.358 366.457 225.932 374.221 215.362C381.985 204.792 393.02 196.554 405.932 191.689C418.843 186.824 433.05 185.55 446.757 188.03C460.464 190.51 473.055 196.631 482.937 205.619C489.5 211.587 494.705 218.673 498.257 226.472C501.808 234.271 503.636 242.629 503.636 251.07C503.636 259.512 501.808 267.87 498.257 275.669C494.705 283.467 489.5 290.553 482.937 296.522Z" fill="#263238" stroke="#263238" stroke-linecap="round" stroke-linejoin="round"/>
<path opacity="0.56" d="M436.866 311.801C475.891 311.801 507.528 283.024 507.528 247.526C507.528 212.028 475.891 183.251 436.866 183.251C397.84 183.251 366.204 212.028 366.204 247.526C366.204 283.024 397.84 311.801 436.866 311.801Z" fill="white"/>
<path d="M376.24 192.368C364.251 203.277 356.087 217.174 352.78 232.303C349.474 247.432 351.173 263.113 357.664 277.364C364.154 291.614 375.144 303.794 389.245 312.363C403.345 320.932 419.922 325.506 436.879 325.506C453.837 325.506 470.414 320.932 484.514 312.363C498.615 303.794 509.605 291.614 516.095 277.364C522.586 263.113 524.285 247.432 520.979 232.303C517.672 217.174 509.508 203.277 497.519 192.368C489.556 185.124 480.103 179.377 469.698 175.456C459.293 171.535 448.142 169.517 436.879 169.517C425.617 169.517 414.466 171.535 404.061 175.456C393.656 179.377 384.203 185.124 376.24 192.368ZM486.84 292.971C476.958 301.96 464.367 308.081 450.66 310.56C436.953 313.04 422.746 311.767 409.835 306.902C396.923 302.037 385.888 293.798 378.124 283.229C370.36 272.659 366.216 260.232 366.216 247.52C366.216 234.808 370.36 222.381 378.124 211.811C385.888 201.242 396.923 193.003 409.835 188.138C422.746 183.273 436.953 182 450.66 184.48C464.367 186.959 476.958 193.08 486.84 202.068C493.403 208.037 498.608 215.123 502.16 222.922C505.711 230.72 507.539 239.079 507.539 247.52C507.539 255.961 505.711 264.32 502.16 272.118C498.608 279.917 493.403 287.003 486.84 292.971Z" fill="white" stroke="#263238" stroke-linecap="round" stroke-linejoin="round"/>
<path d="M212.459 162.583V119.331" stroke="#263238" stroke-linecap="round" stroke-linejoin="round"/>
<path d="M208.5 103.57V110.912L205.28 115.984C205.278 116.796 205.453 117.6 205.793 118.351C206.133 119.102 206.633 119.784 207.264 120.359C207.894 120.933 208.643 121.389 209.468 121.701C210.292 122.012 211.176 122.172 212.069 122.172C213.86 122.172 215.578 121.528 216.85 120.381C218.121 119.234 218.843 117.676 218.858 116.047V110.975" stroke="#263238" stroke-width="3" stroke-linecap="round" stroke-linejoin="round"/>
<path d="M201.489 103.228H215.094V89.4828H201.489V103.228Z" fill="white" stroke="#263238" stroke-linecap="round" stroke-linejoin="round"/>
<path d="M196.47 98.6377H220.14V71.0334H196.47V98.6377Z" fill="white" stroke="#263238" stroke-linecap="round" stroke-linejoin="round"/>
<path d="M189.417 93.3755H226.943V84.9053H189.417V93.3755Z" fill="white" stroke="#263238" stroke-linecap="round" stroke-linejoin="round"/>
<path d="M208.291 84.8926H213.672L221.269 92.7288L220.475 93.3755H216.516L208.291 84.8926Z" fill="#263238"/>
<path d="M223.988 84.8926L226.929 87.9231V93.3755H226.832L218.621 84.8926H223.988Z" fill="#263238"/>
<path d="M197.962 84.8926H203.343L210.94 92.7288L210.145 93.3755H206.187L197.962 84.8926Z" fill="#263238"/>
<path d="M189.403 86.7185V84.8926H193.013L200.61 92.7288L199.816 93.3755H195.857L189.403 86.7185Z" fill="#263238"/>
<path d="M208.835 70.5515V53.9407" stroke="#263238" stroke-width="2" stroke-linecap="round" stroke-linejoin="round"/>
<path d="M21.4954 53.5223H218.314V43.5685L168.674 24.447H21.4954" stroke="#263238" stroke-width="2" stroke-linecap="round" stroke-linejoin="round"/>
<path d="M168.674 53.5223V24.447L135.873 53.5223V24.447L168.674 53.5223Z" stroke="#263238" stroke-width="2" stroke-linecap="round" stroke-linejoin="round"/>
<path d="M119.326 39.1305L103.1 53.5223V24.447L135.915 53.5223V24.447L119.326 39.1305Z" stroke="#263238" stroke-width="2" stroke-linecap="round" stroke-linejoin="round"/>
<path d="M103.142 53.5223V24.447L70.3411 53.5223V24.447L103.142 53.5223Z" stroke="#263238" stroke-width="2" stroke-linecap="round" stroke-linejoin="round"/>
<path d="M54.784 39.7011L70.3829 53.5223V24.447L37.5681 53.5223V24.447L54.784 39.7011Z" stroke="#263238" stroke-width="2" stroke-linecap="round" stroke-linejoin="round"/>
<path d="M211.609 141.483L91.4602 223.98" stroke="#263238" stroke-linecap="round" stroke-linejoin="round"/>
<path d="M211.609 141.483L331.758 223.98" stroke="#263238" stroke-linecap="round" stroke-linejoin="round"/>
<path d="M329.834 222.762C289.85 212 253.123 193.014 222.496 167.275C219.702 164.874 216.004 163.537 212.16 163.537C208.316 163.537 204.618 164.874 201.823 167.275C171.2 193.018 134.472 212.004 94.4853 222.762C91.1739 223.665 88.305 225.577 86.3605 228.177C84.416 230.777 83.5145 233.907 83.8073 237.04C86.5953 266.597 103.421 348.624 202.172 427.024C204.919 429.206 208.443 430.408 212.09 430.408C215.737 430.408 219.261 429.206 222.008 427.024C320.759 348.662 337.585 266.597 340.373 237.04C340.679 233.922 339.8 230.803 337.881 228.205C335.963 225.606 333.123 223.685 329.834 222.762Z" fill="#FF725E" stroke="#263238" stroke-linecap="round" stroke-linejoin="round"/>
<path d="M307.182 235.049C275.722 226.275 246.771 211.31 222.385 191.214C219.613 188.909 215.993 187.631 212.237 187.631C208.481 187.631 204.861 188.909 202.088 191.214C177.697 211.304 148.748 226.268 117.291 235.049C113.945 235.968 111.053 237.916 109.11 240.559C107.168 243.203 106.295 246.378 106.641 249.542C109.513 275.372 124.638 340.28 202.242 402.679C205 404.892 208.551 406.114 212.23 406.114C215.908 406.114 219.459 404.892 222.218 402.679C299.836 340.28 314.946 275.372 317.832 249.542C318.17 246.379 317.294 243.208 315.353 240.566C313.411 237.924 310.524 235.974 307.182 235.049Z" fill="#263238" stroke="#263238" stroke-miterlimit="10"/>
<path d="M307.182 235.049C281.638 227.874 257.685 216.658 236.422 201.916C234.19 200.367 231.526 199.417 228.731 199.173C225.936 198.929 223.121 199.401 220.606 200.535C218.09 201.669 215.973 203.421 214.494 205.592C213.015 207.763 212.233 210.267 212.237 212.821V379.55C212.235 382.256 213.114 384.901 214.763 387.152C216.412 389.403 218.757 391.16 221.502 392.2C224.247 393.24 227.27 393.518 230.188 392.997C233.106 392.477 235.79 391.182 237.9 389.276C301.927 331.202 315.156 273.508 317.832 249.53C318.167 246.369 317.289 243.2 315.348 240.561C313.407 237.921 310.522 235.974 307.182 235.049Z" fill="white" stroke="#263238" stroke-linecap="round" stroke-linejoin="round"/>
<path d="M236.075 309.723C248.172 298.72 248.172 280.881 236.075 269.878C223.979 258.875 204.367 258.875 192.271 269.878C180.174 280.881 180.174 298.72 192.271 309.723C204.367 320.726 223.979 320.726 236.075 309.723Z" fill="white" stroke="#263238" stroke-width="3" stroke-linecap="round" stroke-linejoin="round"/>
<path d="M216.377 301.619C215.383 301.612 214.402 301.411 213.5 301.03C212.599 300.65 211.797 300.098 211.149 299.413L197.558 284.983C196.472 283.696 195.97 282.08 196.154 280.467C196.339 278.853 197.196 277.366 198.55 276.31C199.903 275.254 201.65 274.71 203.431 274.791C205.212 274.871 206.892 275.569 208.124 276.741L216.488 285.706L244.368 257.404C244.957 256.721 245.693 256.155 246.532 255.741C247.37 255.327 248.294 255.074 249.244 254.998C250.195 254.922 251.152 255.024 252.058 255.298C252.963 255.573 253.797 256.013 254.508 256.592C255.218 257.172 255.79 257.878 256.189 258.666C256.587 259.455 256.803 260.31 256.824 261.178C256.844 262.045 256.668 262.908 256.308 263.711C255.947 264.515 255.408 265.242 254.726 265.849L221.646 299.514C220.994 300.175 220.197 300.704 219.306 301.066C218.415 301.429 217.45 301.617 216.474 301.619H216.377Z" fill="#FF725E"/>
<path d="M249.679 257.201C250.621 257.198 251.543 257.443 252.333 257.908C253.124 258.373 253.748 259.037 254.131 259.82C254.514 260.602 254.638 261.469 254.489 262.314C254.339 263.159 253.923 263.947 253.29 264.581L220.057 298.246C219.6 298.709 219.042 299.08 218.417 299.333C217.792 299.587 217.116 299.717 216.432 299.717C215.74 299.708 215.058 299.566 214.431 299.299C213.804 299.032 213.246 298.648 212.794 298.17L199.203 283.74C198.772 283.301 198.442 282.788 198.232 282.231C198.023 281.675 197.937 281.086 197.98 280.499C198.024 279.911 198.196 279.338 198.486 278.812C198.776 278.286 199.178 277.818 199.669 277.435C200.161 277.052 200.731 276.762 201.347 276.583C201.963 276.403 202.612 276.336 203.257 276.387C203.901 276.438 204.528 276.606 205.101 276.88C205.673 277.154 206.18 277.529 206.591 277.984L216.572 288.584L246.055 258.672C246.51 258.208 247.069 257.836 247.694 257.583C248.318 257.329 248.995 257.199 249.679 257.201ZM249.679 253.397C248.41 253.399 247.155 253.643 245.996 254.113C244.836 254.582 243.798 255.267 242.946 256.123L216.6 282.751L209.713 275.448C208.94 274.627 207.996 273.952 206.936 273.463C205.876 272.974 204.721 272.679 203.536 272.596C202.351 272.513 201.159 272.644 200.03 272.979C198.9 273.315 197.854 273.85 196.951 274.554C196.049 275.257 195.307 276.116 194.77 277.08C194.232 278.044 193.908 279.095 193.817 280.173C193.725 281.251 193.869 282.335 194.238 283.362C194.607 284.39 195.195 285.341 195.968 286.162L209.574 300.579C210.41 301.47 211.445 302.188 212.612 302.685C213.778 303.181 215.047 303.445 216.335 303.458H216.432C217.702 303.459 218.958 303.216 220.118 302.747C221.278 302.277 222.316 301.59 223.165 300.732L256.398 267.066C257.567 265.884 258.335 264.419 258.608 262.849C258.881 261.278 258.648 259.67 257.937 258.217C257.226 256.764 256.068 255.53 254.603 254.664C253.137 253.797 251.427 253.335 249.679 253.334V253.397Z" fill="#263238"/>
<path d="M556.206 575.672C556.206 575.672 551.383 582.354 547.452 585.169C543.521 587.984 534.292 592.042 531.713 593.931C529.135 595.821 530.319 597.507 531.17 598.318C532.02 599.13 543.925 599.726 550.393 599.739C556.861 599.751 568.515 597.203 568.515 597.203C568.515 597.203 573.673 597.951 574.969 597.355C576.266 596.759 577.116 595.427 577.311 593.348C577.506 591.268 576.781 579.527 576.781 579.527L556.206 575.672Z" fill="white" stroke="#263238" stroke-linecap="round" stroke-linejoin="round"/>
<path d="M570.035 594.096C565.002 594.831 564.012 595.871 554.296 597.19C546.281 598.28 534.432 596.936 530.11 596.239C530.124 596.626 530.223 597.007 530.4 597.36C530.577 597.713 530.829 598.03 531.142 598.293C532.034 599.105 543.897 599.701 550.365 599.713C556.833 599.726 568.487 597.177 568.487 597.177C568.487 597.177 573.645 597.925 574.941 597.329C575.677 596.912 576.279 596.328 576.69 595.634C577.101 594.94 577.305 594.161 577.283 593.373C574.854 593.486 572.433 593.728 570.035 594.096Z" fill="#263238" stroke="#263238" stroke-linecap="round" stroke-linejoin="round"/>
<path d="M560.388 580.579C560.388 580.579 554.812 578.322 551.062 582.126" stroke="#263238" stroke-width="2" stroke-linecap="round" stroke-linejoin="round"/>
<path d="M554.017 578.664C554.017 578.664 558.297 581.72 557.726 585.004" stroke="#263238" stroke-width="2" stroke-linecap="round" stroke-linejoin="round"/>
<path d="M556.206 584.104C556.206 584.104 551.815 582.253 548.832 585.372" stroke="#263238" stroke-width="2" stroke-linecap="round" stroke-linejoin="round"/>
<path d="M551.202 582.545C551.202 582.545 554.575 585.081 554.101 587.743" stroke="#263238" stroke-width="2" stroke-linecap="round" stroke-linejoin="round"/>
<path d="M552.972 587.68C552.972 587.68 548.915 585.943 542.531 587.997" stroke="#263238" stroke-width="2" stroke-linecap="round" stroke-linejoin="round"/>
<path d="M547.842 586.095C548.146 586.376 548.376 586.715 548.515 587.089C548.653 587.462 548.697 587.859 548.642 588.25C548.587 588.641 548.434 589.015 548.197 589.345C547.959 589.675 547.643 589.951 547.271 590.153" stroke="#263238" stroke-width="2" stroke-linecap="round" stroke-linejoin="round"/>
<path d="M587.975 582.012C587.975 582.012 585.592 589.772 584.727 590.888C583.863 592.004 578.189 598.496 578.148 600.766C578.106 603.035 579.918 604.785 584.435 605.724C588.951 606.662 596.005 606.992 601.595 604.671C607.185 602.351 609.722 601.59 611.144 598.04C612.565 594.489 611.618 582.583 611.618 582.583C611.618 582.583 594.123 570.854 587.975 582.012Z" fill="white" stroke="#263238" stroke-linecap="round" stroke-linejoin="round"/>
<path d="M611.144 598.001C611.704 596.095 611.981 594.129 611.966 592.156C610.795 593.849 609.481 595.455 608.035 596.962C605.247 599.739 600.521 602.82 591.446 603.429C586.761 603.807 582.1 602.505 578.454 599.802C578.328 600.117 578.249 600.445 578.217 600.778C578.217 603.099 579.988 604.798 584.504 605.736C589.021 606.675 596.074 607.004 601.664 604.684C607.254 602.363 609.722 601.552 611.144 598.001Z" fill="#263238" stroke="#263238" stroke-linecap="round" stroke-linejoin="round"/>
<path d="M600.284 579.375C600.284 579.375 592.631 579.032 590.234 583.179" stroke="#263238" stroke-width="2" stroke-linecap="round" stroke-linejoin="round"/>
<path d="M591.906 579.476C591.906 579.476 598.472 580.744 599.49 583.584" stroke="#263238" stroke-width="2" stroke-linecap="round" stroke-linejoin="round"/>
<path d="M598.765 584.447C598.765 584.447 591.112 584.117 588.714 588.251" stroke="#263238" stroke-width="2" stroke-linecap="round" stroke-linejoin="round"/>
<path d="M590.387 584.548C590.387 584.548 596.953 585.816 597.956 588.656" stroke="#263238" stroke-width="2" stroke-linecap="round" stroke-linejoin="round"/>
<path d="M597.231 589.519C597.231 589.519 589.578 589.189 587.181 593.323" stroke="#263238" stroke-width="2" stroke-linecap="round" stroke-linejoin="round"/>
<path d="M588.867 589.62C588.867 589.62 595.419 590.888 596.437 593.728" stroke="#263238" stroke-width="2" stroke-linecap="round" stroke-linejoin="round"/>
<path d="M542.266 429.674C542.266 429.674 545.207 470.01 546.448 481.333C547.689 492.656 550.769 518.764 551.02 519.462C551.271 520.159 552.038 529.39 552.038 529.39C552.038 529.39 551.271 533.093 552.289 541.182C553.306 549.272 556.359 566.137 556.359 566.137C556.359 566.137 553.808 566.593 554.073 568.444C554.338 570.296 555.342 575.38 555.342 575.38C555.342 575.38 564.988 578.373 567.79 578.614C570.592 578.855 576.154 578.614 576.154 578.614C576.154 578.614 578.44 575.139 578.189 573.301C577.662 571.029 576.982 568.789 576.154 566.593L577.423 552.962L579.458 497.284C579.458 497.284 587.334 551.58 588.603 555.498C589.871 559.416 591.14 565.642 591.14 565.642C591.14 565.642 588.603 567.493 588.603 568.647C588.603 569.801 589.104 577.891 589.104 577.891C589.104 577.891 594.192 574.188 599.016 574.886C603.839 575.583 611.715 580.668 611.715 580.668C612.035 578.324 612.547 576.006 613.248 573.732C614.252 570.727 612.231 563.106 611.715 561.052C611.124 558.701 611.039 556.268 611.464 553.888C611.966 551.808 612.231 545.341 612.482 543.262C612.733 541.182 612.231 489.423 612.231 489.423L617.417 430.144L543.535 428.064L542.266 429.674Z" fill="#263238" stroke="#263238" stroke-linecap="round" stroke-linejoin="round"/>
<path d="M553.655 342.474C553.655 342.474 544.19 358.565 541.722 363.181C539.255 367.796 536.383 373.008 536.383 373.008C527.378 361.152 518.443 349.347 508.685 337.998L506.51 335.69C506.51 335.69 494.326 331.506 493.183 332.52C492.04 333.535 489.294 349.156 491.971 351.54C494.647 353.924 505.911 355.344 505.911 355.344L508.043 357.36L507.751 357.601C507.751 357.601 524.799 392.015 527.545 394.373C530.292 396.732 533.526 400.878 539.464 401.144C542.865 401.284 554.38 379.145 554.38 379.145L553.655 342.474Z" fill="white" stroke="#263238" stroke-linecap="round" stroke-linejoin="round"/>
<path d="M552.512 342.246L537.903 365.488L549.445 390.544L556.582 377.268C556.582 377.268 560.667 340.8 557.6 340.496C556.662 340.425 555.719 340.546 554.839 340.848C553.959 341.151 553.164 341.628 552.512 342.246Z" fill="white" stroke="#263238" stroke-linecap="round" stroke-linejoin="round"/>
<path d="M534.167 368.57C534.167 368.57 545.709 396.694 547.075 396.694C548.442 396.694 552.512 391.127 552.164 388.35C551.815 385.573 542.656 363.624 539.618 363.32C536.579 363.016 535.519 365.793 534.167 368.57Z" fill="white" stroke="#263238" stroke-linecap="round" stroke-linejoin="round"/>
<path d="M513.215 343.095C513.215 343.095 509.145 336.679 508.699 334.067C507.988 330.01 513.104 327.486 510.748 326.523C508.392 325.559 504.015 328.349 503.61 331.252C503.367 333.082 503.447 334.936 503.847 336.743C503.847 336.743 501.561 340.547 502.147 343.387C502.732 346.227 504.307 349.334 505.506 349.727" fill="white"/>
<path d="M513.215 343.095C513.215 343.095 509.145 336.679 508.699 334.067C507.988 330.01 513.104 327.486 510.748 326.523C508.392 325.559 504.015 328.349 503.61 331.252C503.367 333.082 503.447 334.936 503.847 336.743C503.847 336.743 501.561 340.547 502.147 343.387C502.732 346.227 504.307 349.334 505.506 349.727" stroke="#263238" stroke-linecap="round" stroke-linejoin="round"/>
<path d="M491.385 329.312C490.996 329.223 490.59 329.206 490.193 329.264C489.797 329.322 489.417 329.453 489.078 329.649C488.739 329.845 488.447 330.101 488.22 330.403C487.994 330.705 487.837 331.046 487.761 331.404C487.604 331.717 487.518 332.056 487.509 332.399C487.5 332.743 487.568 333.085 487.709 333.404C487.85 333.723 488.06 334.012 488.328 334.255C488.596 334.498 488.915 334.688 489.266 334.815C490.66 335.437 498.453 339.494 499.233 337.542C500.014 335.589 500.767 333.839 499.136 332.964C497.505 332.089 491.385 329.312 491.385 329.312Z" fill="white" stroke="#263238" stroke-linecap="round" stroke-linejoin="round"/>
<path d="M490.409 335.158C490.021 335.066 489.616 335.048 489.219 335.104C488.822 335.161 488.443 335.29 488.103 335.485C487.763 335.68 487.471 335.936 487.245 336.237C487.018 336.538 486.862 336.879 486.785 337.237C486.626 337.551 486.538 337.89 486.528 338.235C486.518 338.58 486.586 338.924 486.727 339.244C486.867 339.565 487.079 339.856 487.348 340.099C487.617 340.343 487.937 340.534 488.29 340.661C489.684 341.282 497.463 345.34 498.258 343.374C499.052 341.409 499.777 339.685 498.16 338.81C496.543 337.935 490.409 335.158 490.409 335.158Z" fill="white" stroke="#263238" stroke-linecap="round" stroke-linejoin="round"/>
<path d="M489.754 341.155C489.423 341.079 489.079 341.065 488.741 341.114C488.404 341.162 488.082 341.273 487.793 341.439C487.505 341.606 487.257 341.824 487.064 342.08C486.872 342.336 486.739 342.626 486.673 342.931C486.537 343.196 486.462 343.485 486.453 343.778C486.444 344.071 486.502 344.363 486.622 344.635C486.742 344.908 486.923 345.155 487.152 345.361C487.382 345.567 487.655 345.728 487.956 345.834C489.155 346.367 495.762 349.816 496.431 348.155C497.1 346.494 497.728 345.01 496.348 344.262C494.968 343.514 489.754 341.155 489.754 341.155Z" fill="white" stroke="#263238" stroke-linecap="round" stroke-linejoin="round"/>
<path d="M490.019 346.494C489.721 346.419 489.409 346.401 489.103 346.441C488.797 346.482 488.504 346.579 488.242 346.729C487.979 346.878 487.754 347.075 487.58 347.307C487.406 347.539 487.287 347.802 487.231 348.079C487.119 348.312 487.059 348.564 487.056 348.819C487.052 349.073 487.104 349.326 487.209 349.563C487.315 349.799 487.47 350.013 487.668 350.194C487.866 350.375 488.101 350.518 488.36 350.615C489.433 351.084 495.33 354.165 495.915 352.682C496.501 351.198 497.072 349.879 495.915 349.207C494.758 348.535 490.019 346.494 490.019 346.494Z" fill="white" stroke="#263238" stroke-linecap="round" stroke-linejoin="round"/>
<path d="M569.31 330.238C569.31 330.238 553.613 336.781 552.582 339.114C551.55 341.447 546.267 388.693 543.214 407.586C540.161 426.479 541.471 431.5 541.471 431.5C541.471 431.5 544.733 437.65 576.795 436.648C608.857 435.647 620.177 431.297 620.623 428.723C621.069 426.149 621.487 429.408 621.487 427.62C621.487 425.832 623.885 341.548 621.487 336.388C619.089 331.227 605.568 322.706 601.65 322.313C597.733 321.92 569.31 330.238 569.31 330.238Z" fill="#FF725E" stroke="#263238" stroke-linecap="round" stroke-linejoin="round"/>
<path d="M543.186 410.439V410.667C542.656 413.951 542.28 416.906 542.015 419.607C558.109 422.564 574.544 423.697 590.945 422.979C607.673 422.054 616.957 421.496 621.682 421.217C621.752 418.618 621.822 415.6 621.891 412.265C610.711 413.368 567.079 416.804 543.186 410.439Z" fill="white" stroke="#263238" stroke-linecap="round" stroke-linejoin="round"/>
<path d="M595.74 369.635C596.465 365.958 600.089 348.003 604.787 336.502L612.44 341.105L620.051 341.282C620.051 341.282 602.975 327.6 598.151 326.421C597.181 326.291 596.195 326.291 595.224 326.421C585.633 328.564 569.31 333.357 569.31 333.357C569.31 333.357 553.613 339.9 552.582 342.233C552.238 343.541 551.982 344.866 551.815 346.202L555.746 344.173L551.006 366.731C550.24 366.566 549.487 366.389 548.762 366.198L547.605 375.315C563.428 378.162 579.573 379.244 595.684 378.536C608.606 377.813 617.096 377.268 622.463 377.002C622.463 374.022 622.463 371.068 622.463 368.189C616.343 368.709 606.599 369.381 595.74 369.635ZM555.481 367.606L561.28 341.346C568.529 337.706 576.879 333.738 580.517 332.672C584.991 331.417 589.59 330.567 594.248 330.136L598.277 332.571C597.817 333.649 589.216 353.924 586.93 369.647L588.101 369.736C577.18 369.898 566.264 369.186 555.481 367.606Z" fill="white" stroke="#263238" stroke-linecap="round" stroke-linejoin="round"/>
<path d="M554.645 426.251C554.756 428.051 554.924 429.801 555.133 431.5" stroke="#263238" stroke-miterlimit="10"/>
<path d="M559.58 387.082C557.321 399.065 554.185 408.309 554.477 422.295" stroke="#263238" stroke-miterlimit="10"/>
<path d="M563.427 369.216C563.427 369.216 561.796 375.404 559.97 384.572" stroke="#263238" stroke-miterlimit="10"/>
<path d="M546.03 430.372C546.03 430.372 532.578 428.521 531.811 429.903C531.044 431.285 531.811 450.191 533.08 451.395C534.348 452.6 542.991 454.172 545.528 452.777C548.065 451.383 549.584 450.47 550.1 449.316C550.616 448.162 550.602 433.605 549.584 431.754C549.224 431.216 548.687 430.794 548.05 430.546C547.413 430.298 546.707 430.237 546.03 430.372Z" fill="#263238" stroke="#263238" stroke-linecap="round" stroke-linejoin="round"/>
<path d="M562.033 432.68C562.033 432.68 560.012 451.395 563.302 452.549C567.002 453.58 570.864 454.051 574.732 453.944C576.015 453.703 580.587 453.018 581.34 451.167C582.093 449.316 582.107 434.759 581.591 433.415C581.075 432.071 563.302 430.828 562.033 432.68Z" fill="#263238" stroke="#263238" stroke-linecap="round" stroke-linejoin="round"/>
<path d="M594.039 434.759C594.039 434.759 595.057 455.783 595.573 456.708C596.088 457.634 605.735 463.416 607.505 463.175C609.276 462.934 623.508 461.565 624.233 459.016C624.958 456.467 626.77 435.913 625.251 433.656C623.731 431.399 620.414 430.423 617.375 430.194C614.336 429.966 596.632 432.223 596.632 432.223C595.927 432.268 595.267 432.555 594.786 433.026C594.304 433.497 594.037 434.116 594.039 434.759Z" fill="#263238" stroke="#263238" stroke-linecap="round" stroke-linejoin="round"/>
<path d="M575.848 324.988L569.31 330.238L569.087 336.299L563.859 366.046C563.859 366.046 594.82 329.35 595.238 328.754C597.259 327.497 599.374 326.37 601.567 325.381L599.601 318.04L596.325 318.839L575.848 324.988Z" fill="white" stroke="#263238" stroke-linecap="round" stroke-linejoin="round"/>
<path d="M569.31 330.238L573.687 338.112L574.37 332.089L578.12 340.445L590.707 331.113" stroke="#263238" stroke-linecap="round" stroke-linejoin="round"/>
<path d="M571.54 282.168C571.54 282.168 568.752 287.075 568.571 287.785C568.513 288.744 568.513 289.705 568.571 290.664C568.571 290.664 561.461 297.08 561.698 297.549C561.935 298.018 564.668 298.817 564.668 298.817C564.668 298.817 562.061 315.187 563.58 315.567C565.1 315.948 576.043 315.073 576.043 315.073L574.328 332.089L597.692 319.828L600.34 308.53C600.34 308.53 607.882 302.329 608.565 298.665C609.248 295 608.774 294.214 608.774 294.214L571.54 282.168Z" fill="white" stroke="#263238" stroke-linecap="round" stroke-linejoin="round"/>
<path d="M608.816 294.176L584.936 286.568L584.825 288.216L582.441 295.824C582.441 295.824 589.69 292.769 591.042 292.401C592.394 292.033 594.109 296.344 592.269 298.525C590.429 300.706 585.187 303.204 585.187 303.204C585.187 303.204 589.369 308.783 594.583 309.887C596.359 310.263 598.185 310.408 600.006 310.318L600.382 308.619C600.382 308.619 607.923 302.418 608.607 298.753C609.29 295.089 608.816 294.176 608.816 294.176Z" fill="#263238" stroke="#263238" stroke-linecap="round" stroke-linejoin="round"/>
<path d="M570.146 287.595C570.962 287.311 571.861 287.3 572.686 287.562C573.51 287.824 574.205 288.344 574.649 289.028" stroke="#263238" stroke-linecap="round" stroke-linejoin="round"/>
<path d="M571.735 291.754C571.554 292.692 571.066 293.39 570.648 293.326C570.23 293.263 570.007 292.452 570.188 291.513C570.369 290.575 570.857 289.877 571.275 289.954C571.693 290.03 571.903 290.828 571.735 291.754Z" fill="#263238"/>
<path d="M563.315 315.25L581.256 314.654L575.722 319.422L575.917 315.123L563.315 315.25Z" fill="#263238" stroke="#263238" stroke-linecap="round" stroke-linejoin="round"/>
<path d="M594.193 294.1L600.006 310.229L604.745 307.325L599.225 294.455L594.193 294.1Z" fill="white" stroke="#263238" stroke-linecap="round" stroke-linejoin="round"/>
<path d="M569.073 278.326C569.073 278.326 557.921 277.92 559.203 278.542C560.486 279.163 613.75 303.686 613.75 303.686C613.54 302.003 613.47 300.307 613.541 298.614C613.778 297.346 617.528 289.738 618.169 281.433C618.811 273.127 600.661 265.57 591.363 263.275C582.065 260.98 576.586 264.34 574.83 268.702C573.285 272.084 571.355 275.309 569.073 278.326Z" fill="#FF725E" stroke="#263238" stroke-linecap="round" stroke-linejoin="round"/>
<path d="M583.877 285.046L574.565 280.228C574.565 280.228 582.567 269.196 582.65 267.726C582.695 266.808 582.798 265.894 582.957 264.987C582.957 264.987 583.598 262.666 592.171 264.987" stroke="#263238" stroke-linecap="round" stroke-linejoin="round"/>
<path d="M563.859 299.819C565.676 299.353 567.592 299.306 569.435 299.679C571.624 300.402 572.112 301.86 573.004 301.708C573.896 301.556 579.263 300.44 573.617 303.876C571.498 305.144 569.602 304.726 567.944 304.548C566.679 304.376 565.434 304.104 564.222 303.737C563.62 303.251 563.247 302.573 563.18 301.844C563.112 301.114 563.355 300.389 563.859 299.819Z" fill="#263238" stroke="#263238" stroke-linecap="round" stroke-linejoin="round"/>
<path d="M604.996 428.204C603.642 429.541 602.049 430.66 600.284 431.513C600.361 431.869 600.32 432.237 600.166 432.571C600.012 432.905 599.753 433.19 599.42 433.39" stroke="#263238" stroke-linecap="round" stroke-linejoin="round"/>
<path d="M653.228 378.942C648.517 368.24 641.017 358.768 634.73 348.763C632.851 345.443 630.614 342.3 628.053 339.38C625.449 336.445 621.746 334.485 617.654 333.877H617.444C615.959 333.747 614.459 333.906 613.046 334.343C611.633 334.78 610.338 335.486 609.248 336.413C607.127 338.311 605.847 340.852 605.651 343.552C604.639 349.991 605.939 356.555 609.359 362.268C612.928 368.151 618.476 372.691 623.662 377.484C625.181 378.891 626.659 380.311 628.053 381.807C618.983 392.281 609.903 402.759 600.814 413.241C600.25 413.843 599.781 414.513 599.42 415.232H599.058L591.363 419.264C591.363 419.264 585.675 422.777 585.578 424.526C585.369 428.242 586.888 429.789 588.129 431.576C589.659 433.066 591.365 434.397 593.217 435.545C594.443 436.141 597.399 437.194 599.392 435.685C601.386 434.176 607.324 432.68 607.659 430.27C607.993 427.861 605.01 428.166 605.01 428.166C606.965 426.69 608.21 424.579 608.481 422.282C609.356 422.117 610.207 421.862 611.018 421.521C613.603 420.308 615.995 418.781 618.128 416.982C628.206 409.374 639.038 402.501 649.27 395.045C651.312 393.764 653.012 392.083 654.246 390.126C656.044 386.74 654.818 382.53 653.228 378.942Z" fill="white" stroke="#263238" stroke-linecap="round" stroke-linejoin="round"/>
<path d="M653.228 378.942C648.173 376.345 642.543 374.807 636.751 374.44C632.164 374.347 627.637 375.4 623.662 377.484C618.476 372.665 612.928 368.126 609.359 362.268C605.939 356.555 604.639 349.991 605.651 343.552C605.847 340.852 607.127 338.311 609.248 336.413C610.338 335.486 611.633 334.78 613.046 334.343C614.459 333.906 615.959 333.747 617.444 333.877H617.654C621.746 334.485 625.449 336.445 628.053 339.38C630.614 342.3 632.85 345.443 634.73 348.763C641.017 358.768 648.517 368.24 653.228 378.942Z" fill="white" stroke="#263238" stroke-linecap="round" stroke-linejoin="round"/>
<path d="M624.177 385.573C624.177 385.573 632.332 380.007 639.135 380.628C645.938 381.25 653.396 386.499 654.469 386.182C655.542 385.865 658.553 383.101 657.536 380.007C656.766 377.154 655.741 374.364 654.469 371.663C652.768 368.265 645.645 366.414 638.842 367.961C632.04 369.508 621.18 376.609 621.529 378.764C622.165 381.107 623.052 383.388 624.177 385.573Z" fill="white" stroke="#263238" stroke-linecap="round" stroke-linejoin="round"/>
</svg>
